<?xml version="1.0" encoding="UTF-8"?>
<svg version="1.1" xmlns="http://www.w3.org/2000/svg" width="256" height="256">
<path d="M0 0 C1.06035461 -0.10178055 2.12070923 -0.2035611 3.2131958 -0.3084259 C13.18018317 -1.21092135 23.1718616 -1.73568653 33.17041683 -2.13883495 C39.85434739 -2.41479353 46.47313069 -2.80838684 53.12939453 -3.51855469 C83.44410812 -6.65884224 106.55110592 -3.06644802 130.67220879 15.83868599 C154.82331718 35.47335608 173.25547581 57.94305058 176.73031747 89.59915173 C178.59679194 109.74253785 177.51579595 130.01784237 176.15867919 150.1572147 C175.46283464 160.70147287 175.17771661 171.24728533 174.90606725 181.80953228 C174.49238821 197.36688687 173.94454695 212.92133651 172.9996891 228.45623016 C172.90029076 230.11273617 172.80672275 231.76960407 172.71946716 233.42679405 C172.59790943 235.68907501 172.45255987 237.9485219 172.29972839 240.20887756 C172.22158999 241.47102616 172.1434516 242.73317476 172.06294537 244.03357029 C171.01905783 249.37711348 168.72854484 252.33738459 164.59545898 255.79711151 C160.83388246 257.74418823 158.40609411 257.95671847 154.18383789 257.96179199 C153.12894165 257.97115194 153.12894165 257.97115194 152.05273438 257.98070097 C149.70806853 257.99659176 147.36444801 257.98404305 145.01977539 257.97143555 C143.33405961 257.97685844 141.64834857 257.98398204 139.96264648 257.99267578 C135.39237826 258.01089225 130.82247171 258.00384857 126.25219727 257.99115944 C121.46638015 257.98102308 116.68059374 257.99042689 111.89477539 257.9967041 C103.85826058 258.00397865 95.82189286 257.99439785 87.78540039 257.9753418 C78.49786592 257.95357342 69.2106827 257.96062493 59.92315674 257.98264742 C51.94505815 258.00080689 43.96706522 258.00335706 35.98895264 257.99289274 C31.22573083 257.98666083 26.46267406 257.98581389 21.69946289 257.9990387 C17.22104472 258.01060454 12.74307885 258.00255815 8.26470947 257.97946167 C6.62242381 257.97417849 4.98010001 257.9756817 3.33782959 257.98451233 C1.09327914 257.99546755 -1.14982826 257.98170676 -3.39428711 257.96179199 C-4.64935059 257.96028389 -5.90441406 257.95877579 -7.19750977 257.95722198 C-12.5109373 257.17235845 -15.56211819 254.69782791 -18.95581055 250.65063477 C-20.89304604 246.89602234 -21.06774159 244.51110082 -20.99584961 240.30541992 C-20.99018982 239.64802826 -20.98453003 238.9906366 -20.97869873 238.31332397 C-20.95648736 236.23439551 -20.90632881 234.15725579 -20.85522461 232.07885742 C-20.8351395 230.66091375 -20.81689226 229.24294278 -20.80053711 227.82495117 C-20.75667528 224.36734865 -20.68775898 220.91077792 -20.60522461 217.45385742 C-21.43248047 217.47480469 -22.25973633 217.49575195 -23.11206055 217.51733398 C-26.85965831 217.60047361 -30.6070621 217.65251273 -34.35522461 217.70385742 C-36.3081543 217.75413086 -36.3081543 217.75413086 -38.30053711 217.80541992 C-39.55092773 217.81831055 -40.80131836 217.83120117 -42.08959961 217.84448242 C-43.24169922 217.86542969 -44.39379883 217.88637695 -45.58081055 217.90795898 C-48.60522461 217.45385742 -48.60522461 217.45385742 -50.76190186 215.95477295 C-53.35661319 212.43441611 -53.16526677 209.19221569 -53.12280273 204.98510742 C-53.12981201 204.13263428 -53.13682129 203.28016113 -53.14404297 202.40185547 C-53.16164029 199.58552423 -53.14999421 196.77019879 -53.13647461 193.95385742 C-53.13916903 191.99617317 -53.14305103 190.03849022 -53.14807129 188.08081055 C-53.15396869 183.97846736 -53.14539554 179.87647261 -53.12670898 175.77416992 C-53.10391936 170.51465114 -53.11704114 165.25594879 -53.14099884 159.99645996 C-53.15545024 155.95412032 -53.15085384 151.91197437 -53.14048767 147.86962891 C-53.13781857 145.93033756 -53.14109658 143.99102865 -53.15040588 142.05175781 C-53.16056063 139.34156692 -53.14508589 136.63269967 -53.12280273 133.92260742 C-53.13494812 132.71930786 -53.13494812 132.71930786 -53.14733887 131.49169922 C-53.09529257 128.07634704 -52.85766389 125.84295484 -50.98010254 122.94897461 C-47.8433959 120.97424405 -45.78308207 120.9960782 -42.08959961 121.06323242 C-40.83920898 121.07612305 -39.58881836 121.08901367 -38.30053711 121.10229492 C-36.99858398 121.13581055 -35.69663086 121.16932617 -34.35522461 121.20385742 C-33.03780273 121.2219043 -31.72038086 121.23995117 -30.36303711 121.25854492 C-27.10970153 121.30569471 -23.85782836 121.37149698 -20.60522461 121.45385742 C-20.60891178 120.89247763 -20.61259895 120.33109783 -20.61639786 119.75270653 C-20.70480769 106.08122033 -20.7707072 92.40978434 -20.8124733 78.73807335 C-20.83335012 72.12646204 -20.86167027 65.51505703 -20.90698242 58.90356445 C-20.95043562 52.52340288 -20.974361 46.14343976 -20.98473358 39.76314163 C-20.9921258 37.32865906 -21.00656095 34.89418739 -21.02814484 32.45978928 C-21.05717076 29.05050918 -21.0611808 25.64204974 -21.05932617 22.23266602 C-21.07370728 21.22565643 -21.08808838 20.21864685 -21.10290527 19.18112183 C-21.06912006 13.44357588 -20.63371779 9.87669175 -16.60522461 5.45385742 C-11.50590628 0.95182998 -6.52034472 0.55592836 0 0 Z " fill="#E1E4E6" transform="translate(68.605224609375,-1.453857421875)"/>
<path d="M0 0 C1.12076993 -0.01041829 1.12076993 -0.01041829 2.26418167 -0.02104706 C4.76936551 -0.03935226 7.2736061 -0.02904346 9.77882385 -0.01878357 C11.57424123 -0.02584031 13.36965266 -0.03458429 15.16505432 -0.04489136 C20.04319398 -0.06742309 24.92100977 -0.06443675 29.7991817 -0.05556989 C33.86990127 -0.05046529 37.94055969 -0.05774829 42.01127297 -0.06504196 C51.61369439 -0.0820531 61.21595694 -0.07846301 70.81837463 -0.06175232 C80.72849899 -0.04482927 90.63818295 -0.06066535 100.5482592 -0.0929752 C109.05368864 -0.1196561 117.55898085 -0.12695117 126.06444794 -0.11846012 C131.14573028 -0.11352657 136.22674758 -0.11576962 141.30799675 -0.13624763 C146.0860243 -0.15458118 150.86341753 -0.14867462 155.64141083 -0.12404823 C157.39538569 -0.11903293 159.14940868 -0.12254875 160.90334511 -0.13519669 C163.29746088 -0.15109578 165.68947976 -0.13620894 168.08349609 -0.11352539 C168.77824695 -0.12536112 169.4729978 -0.13719685 170.18880171 -0.14939123 C173.95262609 -0.0768982 175.54112386 0.46425761 178.53650761 2.81913853 C181.27953299 6.39325689 181.29606048 9.3848056 181.22047424 13.71388245 C181.22602325 14.52588104 181.23157227 15.33787964 181.23728943 16.17448425 C181.24907294 18.85098311 181.22482491 21.52578398 181.19898987 24.2021637 C181.19727834 26.06633934 181.19734488 27.9305174 181.19911194 29.79469299 C181.19745943 33.69865494 181.17877432 37.60204214 181.14723206 41.50587463 C181.10755469 46.50624066 181.10318725 51.50585408 181.11069489 56.50634766 C181.11376663 60.35486222 181.10163676 64.20320807 181.08456421 68.05168152 C181.07754042 69.89523764 181.07440892 71.73881289 181.07525635 73.5823822 C181.07345557 76.16042031 181.05205032 78.73756213 181.02516174 81.31544495 C181.02809235 82.07507538 181.03102295 82.83470581 181.03404236 83.61735535 C180.96243198 88.07454527 180.45141841 91.02652788 177.60523987 94.5146637 C174.03564563 96.92770191 170.43890444 96.80076196 166.27967834 96.78208923 C165.17010072 96.7888859 165.17010072 96.7888859 164.0381074 96.79581988 C161.55846833 96.80848425 159.07904833 96.80684223 156.59938049 96.80519104 C154.82204912 96.81117491 153.04472036 96.81798013 151.26739502 96.82554626 C146.43899102 96.84322509 141.61065789 96.84790236 136.78222466 96.84917784 C132.75367625 96.85107607 128.72514439 96.85843251 124.69660234 96.86552203 C115.19494826 96.88180974 105.69333209 96.88669052 96.19166565 96.88526917 C86.38270309 96.88406672 76.57396021 96.90518812 66.76505327 96.93675649 C58.34798409 96.96288238 49.93098683 96.97363806 41.51387739 96.97235835 C36.48462675 96.97184775 31.45557142 96.97758521 26.42636108 96.99871445 C21.69850362 97.01803552 16.97102907 97.01826353 12.24315834 97.00368118 C10.50649267 97.00158453 8.76980341 97.00634467 7.03317833 97.0184021 C4.66526515 97.03378001 2.29868472 97.02459739 -0.06919861 97.00914001 C-1.1040213 97.0245707 -1.1040213 97.0245707 -2.15974951 97.04031312 C-5.43569927 96.99293698 -7.15793548 96.68975843 -9.82086182 94.72094154 C-12.20899522 91.37327558 -11.95230892 88.00599272 -11.91233826 84.0459137 C-11.91934753 83.19344055 -11.92635681 82.34096741 -11.93357849 81.46266174 C-11.95117581 78.6463305 -11.93952973 75.83100506 -11.92601013 73.0146637 C-11.92870455 71.05697944 -11.93258655 69.09929649 -11.93760681 67.14161682 C-11.94350421 63.03927363 -11.93493106 58.93727888 -11.91624451 54.8349762 C-11.89345489 49.57545741 -11.90657666 44.31675506 -11.93053436 39.05726624 C-11.94498576 35.01492659 -11.94038936 30.97278064 -11.93002319 26.93043518 C-11.92735409 24.99114383 -11.93063211 23.05183493 -11.93994141 21.11256409 C-11.95009615 18.40237319 -11.93462141 15.69350595 -11.91233826 12.9834137 C-11.92043518 12.18121399 -11.9285321 11.37901428 -11.93687439 10.55250549 C-11.88671215 7.26078742 -11.7620383 5.03063465 -9.82518673 2.30964756 C-6.59366714 -0.07698099 -3.86605173 -0.04571029 0 0 Z " fill="#F15642" transform="translate(27.394760131835938,119.48533630371094)"/>
<path d="M0 0 C7.08521178 5.79669934 13.46618276 12.30214649 19.93359375 18.765625 C21.17905049 20.00786478 22.42458086 21.25003075 23.67018127 22.49212646 C26.26651379 25.08249988 28.86080033 27.67490267 31.45385742 30.26855469 C34.78348183 33.59828141 38.11997364 36.92103575 41.45820522 40.24213028 C44.02570289 42.79854633 46.58868016 45.3594569 49.15037727 47.92168427 C50.37961769 49.14974205 51.61048588 50.37617267 52.84298515 51.60095978 C54.55690123 53.30513862 56.26443686 55.01546294 57.97045898 56.72753906 C58.48310303 57.2345636 58.99574707 57.74158813 59.52392578 58.26397705 C63 61.77167369 63 61.77167369 63 64 C55.86511443 64.10166265 48.73041662 64.17157591 41.5949707 64.21972656 C39.16911844 64.23980571 36.74331437 64.26707475 34.31762695 64.30175781 C30.82491138 64.35043678 27.33283741 64.3730065 23.83984375 64.390625 C22.76041 64.41127014 21.68097626 64.43191528 20.5688324 64.45318604 C14.12705923 64.4550931 10.23412336 63.8435416 5 60 C1.04030864 55.72770143 -0.12745635 52.63947287 -0.11352539 46.88598633 C-0.11344986 45.84513382 -0.11337433 44.80428131 -0.11329651 43.73188782 C-0.10813522 42.60993515 -0.10297394 41.48798248 -0.09765625 40.33203125 C-0.0962413 39.18208176 -0.09482635 38.03213226 -0.09336853 36.84733582 C-0.08776429 33.16903092 -0.07521104 29.49078655 -0.0625 25.8125 C-0.05748555 23.32096442 -0.05292255 20.82942789 -0.04882812 18.33789062 C-0.03779347 12.22523971 -0.02105118 6.11262418 0 0 Z " fill="#B0B7BD" transform="translate(176,0)"/>
<path d="M0 0 C1.49466797 0.00483398 1.49466797 0.00483398 3.01953125 0.00976562 C3.99277344 -0.00634766 4.96601562 -0.02246094 5.96875 -0.0390625 C12.82640348 -0.04367734 18.81148986 0.47835851 24.3828125 4.90039062 C29.26013267 11.05818718 32.07689846 16.69690694 31.80859375 24.69726562 C30.8556392 30.73863785 27.9933874 36.25954555 23.39453125 40.32226562 C18.88650711 43.32761505 15.36647728 44.57466482 9.9453125 44.58789062 C8.93275391 44.59046875 7.92019531 44.59304687 6.87695312 44.59570312 C5.83087891 44.58796875 4.78480469 44.58023438 3.70703125 44.57226562 C2.64935547 44.58 1.59167969 44.58773437 0.50195312 44.59570312 C-0.50673828 44.593125 -1.51542969 44.59054688 -2.5546875 44.58789062 C-3.47596436 44.58563477 -4.39724121 44.58337891 -5.34643555 44.58105469 C-7.60546875 44.32226562 -7.60546875 44.32226562 -9.60546875 42.32226562 C-9.80553177 39.33264459 -9.88519798 36.43764213 -9.87109375 33.44726562 C-9.8730072 32.56699707 -9.87492065 31.68672852 -9.87689209 30.77978516 C-9.87825427 28.91698928 -9.87455557 27.05418393 -9.86621094 25.19140625 C-9.85551182 22.33376827 -9.86610507 19.47675897 -9.87890625 16.61914062 C-9.87758466 14.81184757 -9.87502228 13.0045549 -9.87109375 11.19726562 C-9.87514221 10.33891113 -9.87919067 9.48055664 -9.88336182 8.59619141 C-9.81701413 0.23765536 -7.55609526 0.05638877 0 0 Z " fill="#FEFBFB" transform="translate(103.60546875,147.677734375)"/>
<path d="M0 0 C0.33 0 0.66 0 1 0 C1.1363128 1.56002428 1.23259126 3.12357176 1.3125 4.6875 C1.39951172 5.99267578 1.39951172 5.99267578 1.48828125 7.32421875 C0.78291009 11.18965269 -1.00571673 12.53117161 -4 15 C-7.03593159 15.61523914 -7.03593159 15.61523914 -10.485672 15.60127258 C-11.7967392 15.6081459 -13.1078064 15.61501923 -14.45860291 15.62210083 C-15.90445522 15.60440716 -17.35030172 15.58623314 -18.79614258 15.56762695 C-20.32395379 15.56621606 -21.85176839 15.56700927 -23.37957764 15.56983948 C-27.52200908 15.57127345 -31.6637159 15.5418873 -35.80597901 15.50696969 C-40.13678448 15.47570279 -44.46760677 15.4727752 -48.79850769 15.46684265 C-56.99729774 15.45130515 -65.19575424 15.41027807 -73.39439744 15.3600952 C-82.7292342 15.30419874 -92.06408693 15.27671449 -101.3990494 15.25161803 C-120.59955534 15.19936204 -139.79975085 15.11142168 -159 15 C-159 12.36 -159 9.72 -159 7 C-158.21608792 6.99761165 -157.43217585 6.99522329 -156.62450886 6.99276257 C-137.55388071 6.93363735 -118.48338226 6.8581032 -99.41289234 6.76428509 C-90.19055638 6.71931148 -80.96825918 6.67990043 -71.74584961 6.65356445 C-63.70798808 6.63059704 -55.67024903 6.59721311 -47.63248461 6.55129844 C-43.37618005 6.52734922 -39.1199969 6.5086316 -34.86362648 6.50238609 C-30.85726216 6.49634289 -26.8512086 6.47637093 -22.84495926 6.44572449 C-21.37481658 6.43693196 -19.90463332 6.4332242 -18.43446541 6.43499184 C-16.42618933 6.43664405 -14.41792679 6.41818201 -12.40974426 6.39872742 C-11.28607862 6.39411845 -10.16241297 6.38950949 -9.00469685 6.38476086 C-5.59996975 5.94877487 -3.7107716 5.08469041 -1 3 C-0.67 2.01 -0.34 1.02 0 0 Z " fill="#CAD0D7" transform="translate(207,209)"/>
<path d="M0 0 C0 15.84 0 31.68 0 48 C-7.87700015 41.24828558 -7.87700015 41.24828558 -11.46655273 37.6628418 C-12.2668541 36.8656926 -13.06715546 36.0685434 -13.89170837 35.24723816 C-14.73053055 34.40639175 -15.56935272 33.56554535 -16.43359375 32.69921875 C-17.7504995 31.38374809 -17.7504995 31.38374809 -19.0940094 30.04170227 C-20.9365418 28.1998471 -22.7778251 26.3567416 -24.61791992 24.51245117 C-26.50839797 22.61837191 -28.40014126 20.72569881 -30.29467773 18.83569336 C-33.03115423 16.10535829 -35.76418703 13.37162543 -38.49609375 10.63671875 C-39.34908554 9.78575119 -40.20207733 8.93478363 -41.08091736 8.05802917 C-41.85915359 7.27664078 -42.63738983 6.49525238 -43.43920898 5.69018555 C-44.12869125 4.99990768 -44.81817352 4.30962982 -45.52854919 3.59843445 C-47 2 -47 2 -47 1 C-40.46720707 0.85743341 -33.9344105 0.71503429 -27.40161133 0.57275391 C-25.17732662 0.52429029 -22.95304277 0.47578775 -20.72875977 0.42724609 C-17.53922746 0.35764597 -14.34969218 0.28818396 -11.16015625 0.21875 C-9.65860741 0.18593933 -9.65860741 0.18593933 -8.12672424 0.15246582 C-7.20584518 0.13244507 -6.28496613 0.11242432 -5.33618164 0.09179688 C-4.52121719 0.07403198 -3.70625275 0.05626709 -2.86659241 0.03796387 C-1.9111754 0.01853203 -0.95561459 0 0 0 Z " fill="#C9D0D7" transform="translate(240,63)"/>
<path d="M0 0 C0.95777344 0.00322266 1.91554688 0.00644531 2.90234375 0.00976562 C3.84464844 -0.00634766 4.78695312 -0.02246094 5.7578125 -0.0390625 C11.934296 -0.04339383 16.53977608 0.48324903 21.296875 4.82226562 C25.53714215 10.2679599 26.4273319 14.57200652 25.65234375 21.32226562 C24.35572013 25.55900395 22.09578667 28.41946132 18.33984375 30.75976562 C12.26674606 33.47819983 5.15920983 32.62727497 -1.34765625 32.32226562 C-1.32445312 33.093125 -1.30125 33.86398438 -1.27734375 34.65820312 C-1.25027344 36.16253906 -1.25027344 36.16253906 -1.22265625 37.69726562 C-1.19945312 38.695 -1.17625 39.69273437 -1.15234375 40.72070312 C-1.34765625 43.32226562 -1.34765625 43.32226562 -3.34765625 45.32226562 C-7.90321181 44.76671007 -7.90321181 44.76671007 -9.34765625 43.32226562 C-9.46122349 40.31588312 -9.51184537 37.33334121 -9.515625 34.32617188 C-9.5189534 33.42229233 -9.5222818 32.51841278 -9.52571106 31.58714294 C-9.53078421 29.67130036 -9.53311927 27.7554489 -9.53295898 25.83959961 C-9.53514438 22.90073144 -9.5532929 19.96223911 -9.57226562 17.0234375 C-9.57519962 15.16601692 -9.57718438 13.30859454 -9.578125 11.45117188 C-9.58531052 10.56780655 -9.59249603 9.68444122 -9.59989929 8.77430725 C-9.56861253 0.46129587 -7.57956204 0.05879773 0 0 Z " fill="#FEFAFA" transform="translate(60.34765625,146.677734375)"/>
<path d="M0 0 C1.31419922 -0.01224609 2.62839844 -0.02449219 3.98242188 -0.03710938 C5.23474609 -0.03904297 6.48707031 -0.04097656 7.77734375 -0.04296875 C8.93355225 -0.04707764 10.08976074 -0.05118652 11.28100586 -0.05541992 C14.0625 0.1875 14.0625 0.1875 16.0625 2.1875 C15.50694444 6.74305556 15.50694444 6.74305556 14.0625 8.1875 C12.50077255 8.27435603 10.93520656 8.29452219 9.37109375 8.28515625 C8.42685547 8.28193359 7.48261719 8.27871094 6.50976562 8.27539062 C5.51654297 8.26701172 4.52332031 8.25863281 3.5 8.25 C2.50291016 8.24548828 1.50582031 8.24097656 0.47851562 8.23632812 C-1.99351487 8.22450023 -4.46551472 8.20656415 -6.9375 8.1875 C-6.9375 11.4875 -6.9375 14.7875 -6.9375 18.1875 C-5.67292969 18.15269531 -4.40835938 18.11789063 -3.10546875 18.08203125 C-1.44532577 18.05389323 0.21483156 18.02659309 1.875 18 C2.70837891 17.97486328 3.54175781 17.94972656 4.40039062 17.92382812 C5.60405273 17.90932617 5.60405273 17.90932617 6.83203125 17.89453125 C7.57042236 17.8788208 8.30881348 17.86311035 9.06958008 17.84692383 C11.62054688 18.28286634 12.51460641 19.15050538 14.0625 21.1875 C13.79213853 24.16147616 13.20803974 25.04196026 11.0625 27.1875 C9.18310547 27.41455078 9.18310547 27.41455078 6.9296875 27.3828125 C6.12402344 27.37636719 5.31835938 27.36992187 4.48828125 27.36328125 C3.64652344 27.34652344 2.80476563 27.32976562 1.9375 27.3125 C0.66326172 27.29896484 0.66326172 27.29896484 -0.63671875 27.28515625 C-2.73709884 27.26155647 -4.83733444 27.22568483 -6.9375 27.1875 C-6.91429687 28.24710938 -6.89109375 29.30671875 -6.8671875 30.3984375 C-6.84843056 31.7864513 -6.83023028 33.1744727 -6.8125 34.5625 C-6.78736328 35.61050781 -6.78736328 35.61050781 -6.76171875 36.6796875 C-6.74405733 38.51647486 -6.83446739 40.35351963 -6.9375 42.1875 C-7.5975 42.8475 -8.2575 43.5075 -8.9375 44.1875 C-13.49305556 43.63194444 -13.49305556 43.63194444 -14.9375 42.1875 C-15.038637 39.16941937 -15.07718909 36.17469487 -15.0703125 33.15625 C-15.07126923 32.24999878 -15.07222595 31.34374756 -15.07321167 30.41003418 C-15.07389353 28.48998953 -15.07203882 26.56994259 -15.06787109 24.64990234 C-15.06252292 21.70014296 -15.06781588 18.75053586 -15.07421875 15.80078125 C-15.07355797 13.94010383 -15.07227681 12.0794265 -15.0703125 10.21875 C-15.07233673 9.33022339 -15.07436096 8.44169678 -15.07644653 7.52624512 C-15.03621892 -2.90723028 -9.05052766 0.00442569 0 0 Z " fill="#FEFAFA" transform="translate(158.9375,147.8125)"/>
<path d="M0 0 C15.89189189 0 15.89189189 0 20 4 C20.78375 4.680625 21.5675 5.36125 22.375 6.0625 C24.89691796 10.6213517 24.85113342 14.9150234 24 20 C22.42259849 23.51018598 20.46661297 25.97812383 17.3125 28.17578125 C13.97922427 29.36382378 10.73662293 29.21002123 7.25 29.125 C4.8575 29.08375 2.465 29.0425 0 29 C0 19.43 0 9.86 0 0 Z " fill="#F15C49" transform="translate(102,155)"/>
<path d="M0 0 C12.24185013 -0.40357748 12.24185013 -0.40357748 17 3 C18.8503199 4.8503199 18.29140132 7.42472082 18.42578125 9.89453125 C17.78770278 13.04980001 16.59435259 14.13023385 14 16 C9.2805118 16.53387876 4.76525513 16.17649093 0 16 C0 10.72 0 5.44 0 0 Z " fill="#F15C48" transform="translate(59,155)"/>
</svg>
